<?xml version="1.0" encoding="UTF-8" standalone="no"?>
<svg
   width="407.03491"
   height="407.03491"
   viewBox="0 0 407.03491 407.03491"
   fill="none"
   version="1.1"
   id="svg42"
   xmlns="http://www.w3.org/2000/svg"
   xmlns:svg="http://www.w3.org/2000/svg">
  <defs
     id="defs46" />
  <path
     d="m 407.0349,203.51745 c 0,112.40031 -91.11714,203.51746 -203.51746,203.51746 C 91.118685,407.03491 0,315.91776 0,203.51745 0,91.117136 91.118685,0 203.51744,0 315.91776,0 407.0349,91.117136 407.0349,203.51745 Z"
     fill="#b0907a"
     id="path2"
     style="stroke-width:1.55238;fill:#665f55;fill-opacity:1" />
  <path
     d="m 364.98842,236.10888 c 3.05118,-0.27152 5.52204,0.95147 7.41036,3.67349 2.12306,2.70028 3.40115,6.55839 3.83216,11.57442 0.80017,9.31949 -0.7916,16.92279 -4.77949,22.81645 -10.0733,14.85908 -20.5306,26.62465 -31.37198,35.2946 -10.86059,8.43099 -24.15363,13.3471 -39.87694,14.74608 -15.25177,1.35993 -28.63653,-1.66183 -40.15003,-9.06313 -11.27667,-7.42082 -22.60028,-20.85699 -33.96656,-40.30846 -9.14082,-15.55636 -16.26742,-26.95918 -21.38406,-34.20622 -5.13585,-7.48819 -10.0775,-12.70406 -14.82289,-15.65198 -4.51067,-2.96962 -9.96656,-4.52939 -16.36345,-4.68147 -0.50781,5.10074 -1.84991,21.10899 -4.03076,48.02688 -0.85072,12.11318 -1.3978,19.5036 -1.64126,22.17346 -1.09438,14.78302 -4.82283,26.43131 -11.18514,34.94268 -6.38298,8.2724 -16.73191,13.0451 -31.04634,14.32032 -15.72268,1.40117 -30.085555,-2.0138 -43.088815,-10.24495 C 69.733965,321.02923 59.335543,308.71621 51.327729,292.57543 43.299424,276.19792 38.361378,257.25914 36.513584,235.75477 33.064653,195.61796 36.892957,160.36898 47.998711,130.00785 59.339382,99.627171 76.672584,75.694101 99.998315,58.208666 123.5385,40.462293 151.50036,30.147403 183.88327,27.262702 c 22.52985,-2.006601 41.7162,-0.224898 57.56538,5.345134 15.84922,5.569783 27.93459,14.124164 36.25604,25.659458 8.5562,11.515766 13.49145,24.919335 14.80583,40.210704 1.15005,13.379662 -0.88976,26.802782 -6.11735,40.267142 -5.01207,13.20587 -13.31651,25.26258 -24.91322,36.16572 -11.59459,10.90315 -26.10382,19.53835 -43.52772,25.90559 11.53058,2.10287 20.64365,6.34552 27.34135,12.73012 6.6956,6.38679 13.66859,15.99737 20.92107,28.83177 7.80301,13.75115 15.15788,23.6876 22.06899,29.8137 7.14579,6.10439 14.94236,8.78075 23.38972,8.02693 7.51069,-0.66909 14.45164,-3.81468 20.82504,-9.43681 6.35418,-5.86325 14.15929,-15.46731 23.41747,-28.81003 2.52845,-3.59531 5.55406,-5.55043 9.07255,-5.86325 z M 124.9092,224.26944 c -7.9786,0.71253 -13.65747,-0.70822 -17.03662,-4.26004 -3.14446,-3.5714 -4.92206,-7.74669 -5.33257,-12.52375 -0.49268,-5.73508 0.87716,-10.43177 4.10973,-14.09005 3.46707,-3.67784 7.54736,-5.72636 12.24068,-6.14562 l 8.80007,-0.78426 c 1.7426,-23.74841 3.52767,-44.2491 5.35539,-61.50645 1.71614,-15.79972 10.90499,-24.44359 27.56605,-25.92732 13.37518,-1.190466 20.58711,4.30562 21.63478,16.4905 0.22622,2.62857 0.2838,4.66845 0.1708,6.12391 l -5.44738,60.43119 c 12.61024,-1.84654 23.84209,-5.97622 33.69558,-12.39125 10.08819,-6.43673 17.76099,-14.82213 23.02061,-25.16262 5.4943,-10.36007 7.70694,-21.75203 6.64011,-34.17583 -1.29303,-15.050233 -7.35492,-26.429119 -18.18563,-34.130206 -10.82858,-7.703229 -25.98219,-10.68591 -45.45871,-8.950182 -22.99821,2.04635 -42.67635,9.697477 -59.03552,22.953305 -16.14516,12.992993 -28.042955,31.386493 -35.693362,55.180563 -7.670712,23.55289 -10.099934,51.69603 -7.287279,84.42721 1.313944,15.29134 3.968497,28.29518 7.963656,39.01371 3.99494,10.71849 8.45802,18.62811 13.38883,23.72451 4.930785,5.09857 9.390895,7.47079 13.380285,7.11454 3.05057,-0.27153 5.38102,-2.04421 6.99154,-5.31799 1.84501,-3.2933 3.05655,-8.45708 3.63456,-15.48905 z"
     fill="#403f3d"
     id="path18"
     style="stroke-width:2.15296;fill:#e1d4c9;fill-opacity:1" />
</svg>
