<?xml version="1.0" encoding="UTF-8" standalone="no"?>
<svg
   width="456.45804"
   height="407.03491"
   viewBox="0 0 456.45804 407.03491"
   fill="none"
   version="1.1"
   id="svg42"
   xmlns="http://www.w3.org/2000/svg"
   xmlns:svg="http://www.w3.org/2000/svg">
  <defs
     id="defs46" />
  <path
     d="m 439.55385,203.51745 c 0,112.40031 -91.11715,203.51746 -203.51746,203.51746 -112.39876,0 -203.517449,-91.11715 -203.517449,-203.51746 C 32.518941,91.117136 123.63763,0 236.03639,0 348.4367,0 439.55385,91.117136 439.55385,203.51745 Z"
     fill="#b0907a"
     id="path2"
     style="stroke-width:1.55238" />
  <path
     d="m 452.56807,175.56899 c 1.03774,-0.0907 1.87737,0.31786 2.52034,1.22715 0.72206,0.90131 1.15675,2.19087 1.30334,3.8665 0.25109,2.87302 -0.21117,5.40715 -1.38607,7.60092 -1.9347,3.62702 -4.65388,6.55955 -8.15753,8.79614 -3.42382,2.22933 -7.64954,3.5646 -12.67787,4.00437 -7.66188,0.66982 -13.80706,-1.08418 -18.43481,-5.26345 -4.635,-4.2591 -7.29467,-10.29905 -7.979,-18.12058 -0.48186,-5.50729 0.22859,-10.71633 2.13064,-15.62782 1.89623,-4.99133 4.75692,-9.06174 8.58278,-12.21126 3.90568,-3.15677 8.45288,-4.96157 13.64014,-5.41513 4.6292,-0.40566 8.46232,0.66692 11.5008,3.21556 3.0305,2.46953 4.75185,6.05809 5.16404,10.76712 0.48186,5.50729 -1.09798,10.4304 -4.73951,14.77005 -3.56896,4.25329 -10.00079,7.95215 -19.29548,11.09804 2.23659,3.50365 5.62921,5.05663 10.17859,4.65823 3.27215,-0.28593 5.87957,-1.27795 7.82225,-2.97608 2.02251,-1.70538 4.27289,-4.47535 6.75186,-8.31137 0.85342,-1.28085 1.8781,-1.97389 3.07549,-2.07839 z m -21.46675,-19.23307 c -2.95285,0.25835 -5.31716,2.1945 -7.09148,5.80773 -1.69523,3.6067 -2.32948,7.84403 -1.90422,12.71271 l 0.021,0.23948 c 4.61106,-1.52976 8.17567,-3.5305 10.69383,-6.00221 2.51816,-2.47244 3.64806,-5.18509 3.38971,-8.13794 -0.1328,-1.5167 -0.67634,-2.67563 -1.63063,-3.4768 -0.88244,-0.88752 -2.04138,-1.26851 -3.47825,-1.14297 z"
     fill="#403f3d"
     id="path4"
     style="stroke-width:0.725694" />
  <path
     d="m 390.57348,204.87832 c -7.82153,0.68433 -14.1191,-0.97678 -18.89271,-4.98189 -4.70105,-4.09291 -7.3687,-9.77002 -8.00441,-17.03349 -0.56531,-6.46448 0.21553,-12.24318 2.34399,-17.33465 2.12774,-5.09219 5.11179,-9.13286 8.95144,-12.12272 3.84037,-2.98986 7.99497,-4.68072 12.46452,-5.07187 4.38972,-0.3839 7.897,0.63643 10.52184,3.06097 2.6974,2.33746 4.22426,5.5414 4.58058,9.61182 0.29318,3.35198 -0.21698,6.25113 -1.53122,8.6989 -1.2344,2.43978 -3.04864,3.7649 -5.4427,3.97462 -1.5167,0.13208 -2.78522,-0.11829 -3.80554,-0.75327 -0.9405,-0.64151 -1.46663,-1.60015 -1.57839,-2.87738 -0.0493,-0.55878 -0.0254,-1.20392 0.0718,-1.93687 0.0965,-0.73223 0.17054,-1.26126 0.22279,-1.5871 0.2939,-1.23222 0.39623,-2.36721 0.30551,-3.40495 -0.0914,-1.03702 -0.44049,-1.81133 -1.0479,-2.32077 -0.52758,-0.5167 -1.27069,-0.73368 -2.22788,-0.6495 -1.83601,0.16038 -3.47825,1.14878 -4.92819,2.96446 -1.45647,1.73586 -2.54138,4.04212 -3.25474,6.91949 -0.71335,2.87738 -0.9238,5.99206 -0.6299,9.34404 0.80988,9.25841 5.24532,13.53492 13.30633,12.82955 3.27215,-0.28665 6.68945,-1.67128 10.25188,-4.1546 3.63572,-2.56969 7.09728,-6.20977 10.38468,-10.92097 0.85995,-1.20103 1.88825,-1.85415 3.08565,-1.95865 1.03702,-0.0907 1.87737,0.31858 2.51961,1.22715 0.72279,0.90204 1.15675,2.19087 1.30335,3.8665 0.2656,3.0334 -0.27649,5.57333 -1.62483,7.62196 -3.34618,4.95722 -7.54142,8.94345 -12.58571,11.95799 -4.97101,2.92817 -9.89121,4.60525 -14.7599,5.03123 z"
     fill="#403f3d"
     id="path6"
     style="stroke-width:0.725694" />
  <path
     d="m 321.72617,210.90158 c -3.03268,0.26488 -5.32732,-1.14224 -6.88393,-4.22354 -1.47607,-3.08782 -2.52179,-8.14301 -3.13645,-15.16628 -0.90712,-10.37597 -0.29318,-20.36152 1.84253,-29.9581 0.51597,-2.37737 1.52686,-4.15459 3.03195,-5.33167 1.57839,-1.26416 3.844,-2.02541 6.79685,-2.28376 1.59653,-0.13933 2.73151,-0.0377 3.40496,0.30552 0.67344,0.34325 1.05879,1.0733 1.15676,2.19087 0.11175,1.27722 -0.23586,4.20249 -1.0421,8.77654 -0.51887,3.26272 -0.91292,6.1118 -1.18216,8.54795 -0.26923,2.43616 -0.41001,5.42384 -0.42235,8.96377 2.03339,-7.09438 4.49785,-12.93912 7.39337,-17.53567 2.89479,-4.59582 5.81861,-7.9478 8.77074,-10.05594 3.03195,-2.11467 5.86433,-3.28739 8.4986,-3.51816 5.18726,-0.45356 8.00876,1.91293 8.46232,7.10091 0.0907,1.03775 -0.0486,3.58276 -0.418,7.63648 -0.35849,3.24821 -0.50363,5.27144 -0.43397,6.06971 0.24456,2.79319 1.36431,4.10307 3.35997,3.92818 2.23441,-0.19521 4.95431,-2.20248 8.15897,-6.02181 0.94631,-1.12845 1.97825,-1.74094 3.09581,-1.83891 1.03775,-0.0907 1.87737,0.31785 2.52034,1.22715 0.71481,0.82221 1.13934,1.9913 1.27142,3.50728 0.25834,2.95357 -0.33673,5.33748 -1.78666,7.15316 -2.03195,2.51018 -4.49132,4.73588 -7.37741,6.67712 -2.81351,1.85487 -5.89626,2.9289 -9.24824,3.22208 -4.23007,0.3701 -7.55665,-0.42453 -9.97975,-2.38391 -2.34399,-1.96663 -3.67636,-4.78522 -3.99712,-8.45651 -0.10522,-1.1974 -0.09,-2.40495 0.045,-3.62339 0.0196,-1.60959 0.005,-2.6945 -0.0435,-3.25329 -0.11175,-1.27649 -0.60668,-1.87664 -1.48477,-1.79972 -1.19667,0.1045 -2.67418,1.60088 -4.43254,4.48914 -1.68506,2.80118 -3.2932,6.48045 -4.82441,11.03781 -1.53121,4.55736 -2.68289,9.32227 -3.4543,14.29545 -0.54935,3.82803 -1.36358,6.47319 -2.44196,7.93474 -1.00582,1.37446 -2.74603,2.16982 -5.21992,2.3868 z"
     fill="#403f3d"
     id="path8"
     style="stroke-width:0.725694" />
  <path
     d="m 270.13876,215.41467 c -3.59146,0.31423 -6.688,-1.06314 -9.28888,-4.13355 -2.5276,-3.15604 -4.00801,-7.20904 -4.44125,-12.15683 -0.52395,-5.98625 -0.60305,-11.48846 -0.23803,-16.50663 0.35849,-5.09728 1.21118,-10.52039 2.55807,-16.26788 0.58854,-2.46373 1.55589,-4.27797 2.90133,-5.44126 1.34616,-1.16328 3.57549,-1.881 6.68799,-2.15313 1.75618,-0.15385 2.97753,0.021 3.66476,0.52395 0.76706,0.49565 1.19957,1.30262 1.29754,2.41946 0.0559,0.63861 -0.19449,2.83239 -0.75109,6.5806 -0.53992,3.02251 -0.94486,5.75185 -1.21409,8.188 -0.86285,8.52038 -1.172,14.17716 -0.92816,16.97036 0.14731,1.67562 0.45138,2.8556 0.91292,3.53921 0.45501,0.60377 1.1212,0.86647 1.99929,0.79028 1.19739,-0.10523 2.56895,-1.43107 4.11541,-3.97898 1.62628,-2.55517 3.22426,-6.35418 4.79321,-11.39775 1.6495,-5.04938 3.12121,-11.21052 4.41512,-18.48125 0.42888,-2.44995 1.23658,-4.24967 2.42309,-5.39917 1.26561,-1.15603 3.21555,-1.84906 5.84909,-2.07983 1.83601,-0.16038 3.13355,-0.0327 3.89408,0.38316 0.75327,0.336 1.18215,1.10306 1.28665,2.29973 0.1749,1.99565 -0.3447,7.55012 -1.55806,16.66338 -1.34036,10.41153 -1.9064,16.81433 -1.69667,19.20912 0.1328,1.51598 0.5566,2.68507 1.27141,3.50728 0.70901,0.74239 1.58129,1.06822 2.61903,0.97751 1.59653,-0.14006 3.38827,-1.26198 5.37522,-3.36577 2.06024,-2.19087 4.73443,-5.64154 8.02109,-10.35275 0.86068,-1.20102 1.88898,-1.85342 3.08638,-1.95865 1.03702,-0.0907 1.87737,0.31858 2.51961,1.22715 0.72206,0.90204 1.15676,2.19087 1.30335,3.86723 0.27939,3.19232 -0.26198,5.73298 -1.62483,7.62123 -3.06243,4.53051 -6.46957,8.32662 -10.22285,11.38977 -3.67347,3.0559 -8.024,4.80337 -13.05234,5.24314 -3.83094,0.33527 -6.79322,-0.89333 -8.88757,-3.6858 -2.0138,-2.79973 -3.25474,-6.87305 -3.72281,-12.21996 -0.88172,5.54575 -2.55082,9.9137 -5.00584,13.10458 -2.46228,3.11033 -5.24967,4.80192 -8.36217,5.07405 z"
     fill="#403f3d"
     id="path10"
     style="stroke-width:0.725694" />
  <path
     d="m 261.70257,178.51531 c 1.03774,-0.0907 1.881,0.35777 2.53049,1.34689 0.6495,0.98839 1.04427,2.28086 1.18361,3.87738 0.33527,3.83094 -0.62265,6.20686 -2.87448,7.12704 -4.64226,2.09508 -9.82589,3.51381 -15.55162,4.2562 -0.92961,6.83676 -3.4514,12.48629 -7.56463,16.94713 -4.12049,4.38174 -9.01385,6.8208 -14.68007,7.31645 -4.78885,0.41872 -9.00078,-0.37882 -12.63505,-2.39334 -3.55445,-2.02106 -6.3774,-4.87013 -8.46813,-8.54795 -2.09145,-3.67709 -3.33239,-7.75041 -3.72353,-12.21996 -0.53049,-6.06535 0.15529,-11.5545 2.05806,-16.466 1.89552,-4.9906 4.76346,-8.98119 8.60311,-11.97105 3.83311,-3.06968 8.22356,-4.82151 13.17207,-5.25402 6.06607,-0.53121 11.11908,1.15821 15.1612,5.06679 4.11396,3.82223 6.75911,8.778 7.93546,14.86802 3.73007,-0.56822 8.12995,-1.7569 13.19892,-3.56751 0.6241,-0.21553 1.17635,-0.3447 1.65459,-0.38607 z m -37.10982,28.09742 c 2.55444,-0.22351 4.65823,-1.45356 6.31281,-3.6887 1.73369,-2.24312 2.74893,-5.34764 3.04502,-9.31428 -2.62048,-1.45937 -4.7279,-3.48696 -6.32225,-6.08205 -1.51452,-2.60161 -2.40422,-5.41875 -2.66983,-8.45215 -0.11176,-1.2765 -0.10377,-2.56388 0.0239,-3.86215 l -0.5987,0.0522 c -3.19233,0.2794 -5.73008,2.06968 -7.61253,5.37086 -1.80988,3.21483 -2.47026,7.61544 -1.98114,13.20183 0.38389,4.38972 1.51525,7.66841 3.39334,9.83678 1.95865,2.16039 4.09509,3.14008 6.40933,2.93761 z"
     fill="#403f3d"
     id="path12"
     style="stroke-width:0.725694" />
  <path
     d="m 175.32103,226.36394 c -4.15024,0.36358 -7.42602,-0.31495 -9.8288,-2.03484 -2.32222,-1.72715 -3.58855,-3.78812 -3.79755,-6.18219 -0.18215,-2.07548 0.41945,-3.93761 1.80335,-5.58639 1.38317,-1.64878 3.55154,-2.60307 6.50512,-2.86141 1.03701,-0.0907 2.24529,-0.0755 3.62266,0.045 1.45066,0.0341 2.53848,0.0595 3.26417,0.0769 -0.26197,-2.06822 -0.91147,-3.98188 -1.94994,-5.74096 -0.95864,-1.76561 -2.15023,-3.43108 -3.57404,-4.99495 -1.43034,-1.64443 -2.75981,-3.0559 -3.98914,-4.23515 -2.06242,4.92528 -4.19451,9.0523 -6.39627,12.38179 -2.12193,3.32223 -4.49712,6.50512 -7.12631,9.55013 -1.31061,1.56242 -2.76417,2.41366 -4.3607,2.55299 -1.27722,0.11176 -2.3527,-0.23657 -3.22788,-1.04427 -0.88172,-0.88825 -1.38245,-2.01017 -1.50074,-3.36722 -0.14006,-1.59653 0.28955,-3.12194 1.28811,-4.57623 l 1.38898,-2.05153 c 3.91511,-5.81136 6.83603,-10.57046 8.76348,-14.27803 1.15458,-2.43326 2.48187,-5.64518 3.9826,-9.63722 1.49348,-4.07114 2.93616,-8.25912 4.32877,-12.56249 1.20973,-3.64443 4.2083,-5.67638 8.99715,-6.0951 2.23442,-0.19594 3.80845,-0.13208 4.72137,0.19013 0.91292,0.32221 1.40785,0.92236 1.48477,1.80045 0.0414,0.47823 -0.0515,1.25109 -0.28012,2.31641 -0.22859,1.06532 -0.57693,2.14152 -1.04427,3.22789 -1.18579,2.99857 -1.69087,5.49568 -1.51598,7.49134 0.1045,1.19667 0.61902,2.47897 1.54283,3.84545 1.00291,1.35995 2.47752,3.04066 4.42165,5.04212 2.8469,3.12847 5.01382,5.83386 6.50077,8.11689 1.55879,2.19595 2.46083,4.69016 2.70539,7.48336 0.0697,0.79826 0.0878,1.92308 0.0537,3.37302 3.77796,-1.8585 8.01456,-6.29031 12.7098,-13.29544 0.85995,-1.20102 1.88826,-1.85415 3.08565,-1.95937 1.03775,-0.0907 1.87737,0.31858 2.52034,1.22715 0.72206,0.90203 1.15675,2.19087 1.30334,3.86722 0.26488,3.03267 -0.27648,5.57333 -1.62555,7.62124 -3.55735,5.29756 -7.09148,9.02473 -10.60239,11.18149 -3.43834,2.07041 -7.82371,3.41947 -13.15683,4.04647 -2.95503,2.99276 -6.62777,4.68145 -11.01749,5.06534 z"
     fill="#403f3d"
     id="path14"
     style="stroke-width:0.725694" />
  <path
     d="m 156.83107,197.82313 c 1.03775,-0.0907 1.87737,0.31858 2.52034,1.22714 0.72207,0.90204 1.15676,2.19087 1.30335,3.86723 0.27866,3.19233 -0.26271,5.73298 -1.62556,7.62124 -2.63862,3.8498 -6.53923,7.52907 -11.70109,11.03635 -5.08203,3.50075 -10.696,5.51963 -16.84118,6.05737 -8.38031,0.73367 -15.08428,-0.97243 -20.11116,-5.11614 -5.02688,-4.14444 -7.88611,-10.1677 -8.5777,-18.06906 -0.48186,-5.50657 0.22859,-10.7156 2.13136,-15.62709 1.89552,-4.99133 4.7562,-9.06175 8.58206,-12.21126 3.90641,-3.15677 8.45288,-4.96157 13.64087,-5.41585 4.6292,-0.40494 8.46232,0.66764 11.50007,3.21627 3.03123,2.46954 4.75257,6.0581 5.16404,10.76713 0.48186,5.50729 -1.09797,10.4304 -4.73951,14.77005 -3.56823,4.25329 -9.96015,7.94852 -19.17573,11.08715 2.31641,3.49712 6.26854,5.00076 11.85493,4.51236 3.59146,-0.31422 7.55375,-1.90785 11.88687,-4.78014 4.40569,-2.95866 8.106,-6.61978 11.10239,-10.98338 0.85995,-1.20175 1.88826,-1.85415 3.08565,-1.95937 z m -31.68742,-14.71926 c -2.95358,0.25835 -5.31716,2.19378 -7.09221,5.80773 -1.6945,3.60598 -2.32948,7.84403 -1.9035,12.71198 l 0.0211,0.23948 c 4.61106,-1.52903 8.17567,-3.52977 10.69382,-6.00221 2.51816,-2.47171 3.64807,-5.18436 3.38972,-8.13721 -0.1328,-1.5167 -0.67635,-2.67563 -1.63136,-3.4768 -0.88172,-0.88752 -2.04138,-1.26851 -3.47752,-1.14297 z"
     fill="#403f3d"
     id="path16"
     style="stroke-width:0.725694" />
  <path
     d="m 112.13413,201.73389 c 1.03774,-0.0907 1.8781,0.31785 2.52033,1.22715 0.72207,0.90204 1.15676,2.19087 1.30335,3.8665 0.27214,3.11322 -0.26923,5.65315 -1.62555,7.62196 -3.42601,4.96375 -6.98263,8.89411 -10.66988,11.79035 -3.69379,2.81642 -8.21486,4.45867 -13.5625,4.92601 -5.18726,0.45429 -9.73954,-0.55515 -13.65538,-3.02759 -3.835291,-2.47897 -7.686551,-6.96739 -11.552321,-13.46526 -3.108878,-5.19669 -5.532696,-9.00586 -7.27291,-11.42677 -1.746746,-2.50147 -3.427453,-4.24386 -5.041397,-5.22863 -1.534117,-0.99202 -3.389716,-1.51307 -5.565347,-1.56387 -0.172715,1.70393 -0.629177,7.05157 -1.370908,16.04364 -0.289335,4.04647 -0.475403,6.51528 -0.558204,7.40716 -0.372209,4.93835 -1.640286,8.82952 -3.804161,11.67279 -2.170913,2.76344 -5.690674,4.35779 -10.559138,4.78378 -5.347421,0.46807 -10.232358,-0.67272 -14.654882,-3.42238 -4.349738,-2.83674 -7.886335,-6.94997 -10.609864,-12.34188 -2.730497,-5.471 -4.40997,-11.7976 -5.03842102,-18.98125 -1.173012,-13.40792 0.129028,-25.18303 3.90619302,-35.32533 3.857063,-10.14883 9.752239,-18.1438 17.685526,-23.98491 8.006219,-5.92827 17.516294,-9.37401 28.530006,-10.33766 7.662603,-0.67032 14.188047,-0.0751 19.578497,1.78557 5.390461,1.86061 9.500791,4.71825 12.330991,8.57168 2.91004,3.8469 4.58857,8.32444 5.0356,13.4326 0.39114,4.46955 -0.30262,8.95361 -2.08057,13.45146 -1.70465,4.41149 -4.52906,8.4391 -8.4732,12.08135 -3.943421,3.64226 -8.878141,6.5269 -14.804162,8.65391 3.921651,0.70247 7.021091,2.11975 9.299041,4.25256 2.277231,2.13354 4.648801,5.34401 7.115431,9.63141 2.65387,4.59365 5.15533,7.91297 7.50586,9.95943 2.43034,2.0392 5.08203,2.93325 7.95505,2.68144 2.55445,-0.22352 4.91513,-1.27432 7.08278,-3.15242 2.16111,-1.95865 4.8157,-5.16694 7.96449,-9.62415 0.85995,-1.20103 1.88898,-1.85415 3.08565,-1.95865 z m -81.653059,-3.95503 c -2.713588,0.23803 -4.645023,-0.23658 -5.794304,-1.42309 -1.069455,-1.19304 -1.674031,-2.58782 -1.813655,-4.18362 -0.167562,-1.91584 0.298333,-3.48479 1.39776,-4.70686 1.17918,-1.2286 2.566924,-1.91292 4.163161,-2.05298 l 2.99298,-0.26198 c 0.592674,-7.93329 1.19979,-14.78166 1.821419,-20.54657 0.583676,-5.27798 3.708877,-8.16551 9.375459,-8.66116 4.549012,-0.39768 7.001858,1.43832 7.358174,5.50874 0.07692,0.87809 0.09652,1.55952 0.05806,2.04573 l -1.852697,20.18736 c 4.288851,-0.61684 8.108905,-1.99639 11.460159,-4.13936 3.431082,-2.15023 6.040672,-4.95141 7.829512,-8.40571 1.86866,-3.46084 2.6212,-7.26638 2.25836,-11.41662 -0.43977,-5.02761 -2.50147,-8.82879 -6.18509,-11.40138 -3.682896,-2.57331 -8.836775,-3.56969 -15.46091,-2.98986 -7.821893,0.6836 -14.514606,3.2395 -20.078502,7.66768 -5.491109,4.34038 -9.537651,10.48483 -12.139627,18.43336 -2.60887,7.86797 -3.435072,17.26934 -2.478462,28.20337 0.446882,5.10816 1.349718,9.45216 2.708507,13.03274 1.358717,3.58057 2.876651,6.22282 4.553658,7.9253 1.677006,1.70321 3.193924,2.49566 4.550754,2.37665 1.037525,-0.0907 1.830128,-0.68288 2.377882,-1.7765 0.627507,-1.10015 1.039556,-2.82513 1.236147,-5.1742 z"
     fill="#403f3d"
     id="path18"
     style="stroke-width:0.725694" />
  <path
     d="m 429.57736,289.43112 v -40.145 h 26.111 v 6.096 h -18.838 v 10.899 h 17.485 v 6.096 h -17.485 v 10.958 h 18.994 v 6.096 z"
     fill="#403f3d"
     id="path20" />
  <path
     d="m 412.78736,260.32212 c -0.183,-1.712 -0.954,-3.045 -2.313,-3.999 -1.346,-0.954 -3.097,-1.431 -5.254,-1.431 -1.516,0 -2.816,0.229 -3.901,0.686 -1.084,0.457 -1.914,1.078 -2.489,1.862 -0.575,0.784 -0.869,1.679 -0.882,2.686 0,0.836 0.189,1.561 0.568,2.176 0.392,0.614 0.922,1.136 1.588,1.568 0.667,0.418 1.405,0.771 2.215,1.058 0.81,0.288 1.627,0.53 2.45,0.726 l 3.764,0.94 c 1.516,0.353 2.973,0.83 4.371,1.431 1.412,0.602 2.673,1.359 3.784,2.274 1.123,0.915 2.012,2.019 2.666,3.313 0.653,1.294 0.98,2.81 0.98,4.548 0,2.352 -0.601,4.423 -1.804,6.214 -1.202,1.777 -2.94,3.169 -5.214,4.175 -2.261,0.993 -4.999,1.49 -8.213,1.49 -3.124,0 -5.835,-0.484 -8.135,-1.451 -2.287,-0.967 -4.078,-2.378 -5.371,-4.234 -1.281,-1.856 -1.974,-4.116 -2.078,-6.782 h 7.155 c 0.104,1.398 0.535,2.561 1.293,3.489 0.758,0.928 1.745,1.62 2.96,2.078 1.229,0.457 2.601,0.686 4.117,0.686 1.581,0 2.966,-0.235 4.156,-0.706 1.202,-0.483 2.143,-1.15 2.822,-1.999 0.68,-0.863 1.026,-1.869 1.039,-3.019 -0.013,-1.045 -0.32,-1.908 -0.921,-2.588 -0.601,-0.692 -1.444,-1.267 -2.529,-1.725 -1.071,-0.47 -2.326,-0.888 -3.763,-1.254 l -4.568,-1.176 c -3.306,-0.85 -5.92,-2.137 -7.841,-3.862 -1.908,-1.738 -2.862,-4.044 -2.862,-6.919 0,-2.366 0.641,-4.437 1.921,-6.214 1.294,-1.778 3.052,-3.156 5.273,-4.136 2.222,-0.994 4.738,-1.49 7.547,-1.49 2.849,0 5.345,0.496 7.488,1.49 2.157,0.98 3.849,2.345 5.077,4.096 1.229,1.738 1.863,3.738 1.902,5.999 z"
     fill="#403f3d"
     id="path22" />
  <path
     d="m 373.03236,249.28612 h 7.273 v 26.227 c 0,2.875 -0.68,5.404 -2.039,7.587 -1.346,2.182 -3.241,3.887 -5.684,5.116 -2.444,1.215 -5.3,1.823 -8.567,1.823 -3.28,0 -6.142,-0.608 -8.585,-1.823 -2.444,-1.229 -4.339,-2.934 -5.685,-5.116 -1.346,-2.183 -2.019,-4.712 -2.019,-7.587 v -26.227 h 7.272 v 25.62 c 0,1.672 0.366,3.162 1.098,4.469 0.745,1.307 1.79,2.333 3.136,3.078 1.346,0.731 2.941,1.097 4.783,1.097 1.843,0 3.437,-0.366 4.783,-1.097 1.359,-0.745 2.405,-1.771 3.137,-3.078 0.731,-1.307 1.097,-2.797 1.097,-4.469 z"
     fill="#403f3d"
     id="path24" />
  <path
     d="m 338.09036,269.35812 c 0,4.326 -0.81,8.031 -2.431,11.115 -1.607,3.071 -3.803,5.423 -6.586,7.057 -2.77,1.633 -5.913,2.45 -9.429,2.45 -3.515,0 -6.665,-0.817 -9.448,-2.45 -2.77,-1.647 -4.966,-4.006 -6.586,-7.077 -1.608,-3.084 -2.411,-6.782 -2.411,-11.095 0,-4.325 0.803,-8.024 2.411,-11.095 1.62,-3.084 3.816,-5.442 6.586,-7.076 2.783,-1.633 5.933,-2.45 9.448,-2.45 3.516,0 6.659,0.817 9.429,2.45 2.783,1.634 4.979,3.992 6.586,7.076 1.621,3.071 2.431,6.77 2.431,11.095 z m -7.312,0 c 0,-3.045 -0.477,-5.612 -1.431,-7.703 -0.941,-2.104 -2.247,-3.692 -3.92,-4.764 -1.673,-1.084 -3.6,-1.627 -5.783,-1.627 -2.182,0 -4.11,0.543 -5.782,1.627 -1.673,1.072 -2.986,2.66 -3.94,4.764 -0.941,2.091 -1.412,4.658 -1.412,7.703 0,3.045 0.471,5.62 1.412,7.724 0.954,2.091 2.267,3.678 3.94,4.763 1.672,1.072 3.6,1.607 5.782,1.607 2.183,0 4.11,-0.535 5.783,-1.607 1.673,-1.085 2.979,-2.672 3.92,-4.763 0.954,-2.104 1.431,-4.679 1.431,-7.724 z"
     fill="#403f3d"
     id="path26" />
  <path
     d="m 258.38236,289.43112 v -40.145 h 7.273 v 16.995 h 18.602 v -16.995 h 7.292 v 40.145 h -7.292 v -17.054 h -18.602 v 17.054 z"
     fill="#403f3d"
     id="path28" />
  <path
     d="m 205.64036,289.43112 v -40.145 h 26.11 v 6.096 h -18.838 v 10.899 h 17.486 v 6.096 h -17.486 v 10.958 h 18.995 v 6.096 z"
     fill="#403f3d"
     id="path30" />
  <path
     d="m 169.35136,289.43112 v -40.145 h 26.11 v 6.096 h -18.838 v 10.899 h 17.486 v 6.096 h -17.486 v 10.958 h 18.995 v 6.096 z"
     fill="#403f3d"
     id="path32" />
  <path
     d="m 134.24736,289.43112 v -40.145 h 25.719 v 6.096 h -18.446 v 10.899 h 16.681 v 6.096 h -16.681 v 17.054 z"
     fill="#403f3d"
     id="path34" />
  <path
     d="m 99.14436,289.43112 v -40.145 h 25.718 v 6.096 h -18.446 v 10.899 h 16.682 v 6.096 h -16.682 v 17.054 z"
     fill="#403f3d"
     id="path36" />
  <path
     d="m 89.50836,269.35812 c 0,4.326 -0.81,8.031 -2.431,11.115 -1.607,3.071 -3.803,5.423 -6.586,7.057 -2.771,1.633 -5.913,2.45 -9.429004,2.45 -3.515,0 -6.664998,-0.817 -9.447998,-2.45 -2.771,-1.647 -4.966,-4.006 -6.586,-7.077 -1.608,-3.084 -2.412,-6.782 -2.412,-11.095 0,-4.325 0.804,-8.024 2.412,-11.095 1.62,-3.084 3.815,-5.442 6.586,-7.076 2.783,-1.633 5.932998,-2.45 9.447998,-2.45 3.516004,0 6.658004,0.817 9.429004,2.45 2.783,1.634 4.979,3.992 6.586,7.076 1.621,3.071 2.431,6.77 2.431,11.095 z m -7.312,0 c 0,-3.045 -0.477,-5.612 -1.431,-7.703 -0.941,-2.104 -2.247,-3.692 -3.92,-4.764 -1.673,-1.084 -3.6,-1.627 -5.783004,-1.627 -2.182,0 -4.11,0.543 -5.781998,1.627 -1.673,1.072 -2.987,2.66 -3.941,4.764 -0.94,2.091 -1.411,4.658 -1.411,7.703 0,3.045 0.471,5.62 1.411,7.724 0.954,2.091 2.268,3.678 3.941,4.763 1.671998,1.072 3.599998,1.607 5.781998,1.607 2.183004,0 4.110004,-0.535 5.783004,-1.607 1.673,-1.085 2.979,-2.672 3.92,-4.763 0.954,-2.104 1.431,-4.679 1.431,-7.724 z"
     fill="#403f3d"
     id="path38" />
  <path
     d="m 44.215358,262.83112 h -7.331 c -0.209,-1.202 -0.594,-2.268 -1.156,-3.195 -0.562,-0.941 -1.261,-1.738 -2.098,-2.392 -0.836,-0.653 -1.79,-1.143 -2.862,-1.47 -1.058,-0.34 -2.202,-0.51 -3.43,-0.51 -2.183,0 -4.117,0.549 -5.802,1.647 -1.686,1.085 -3.006,2.679 -3.96,4.783 -0.954,2.091 -1.431,4.646 -1.431,7.664 0,3.071 0.477,5.659 1.431,7.763 0.967,2.091 2.287,3.672 3.96,4.744 1.685,1.058 3.613,1.587 5.782,1.587 1.202,0 2.326,-0.156 3.372,-0.47 1.058,-0.327 2.006,-0.804 2.842,-1.431 0.85,-0.627 1.562,-1.398 2.137,-2.313 0.588,-0.915 0.993,-1.96 1.215,-3.136 l 7.331,0.039 c -0.274,1.908 -0.869,3.698 -1.783,5.371 -0.902,1.673 -2.085,3.149 -3.548,4.43 -1.464,1.268 -3.176,2.261 -5.136,2.979 -1.96,0.706 -4.136,1.059 -6.528,1.059 -3.528,0 -6.678,-0.817 -9.448,-2.45 -2.771,-1.634 -4.953,-3.993 -6.547,-7.077 -1.595,-3.084 -2.392,-6.782 -2.392,-11.095 0,-4.325 0.804,-8.024 2.411,-11.095 1.608,-3.084 3.797,-5.442 6.567,-7.076 2.771,-1.633 5.907,-2.45 9.409,-2.45 2.235,0 4.313,0.313 6.234,0.941 1.921,0.627 3.633,1.548 5.136,2.764 1.502,1.202 2.737,2.679 3.704,4.43 0.98,1.738 1.621,3.724 1.921,5.959 z"
     fill="#403f3d"
     id="path40" />
</svg>
