<!-- icon666.com - MILLIONS vector ICONS FREE --><svg viewBox="0 0 64 64" xmlns="http://www.w3.org/2000/svg"><g id="Layer_64" data-name="Layer 64"><path d="m56.7 28.23-6.35-12.4a1.48 1.48 0 0 0 -1.35-.83h-24.9a1.49 1.49 0 0 0 -1.26.69l-8 12.49h-8.75a3.59 3.59 0 0 0 -3.59 3.61v3.7a8.94 8.94 0 0 0 8.25 8.9 6.63 6.63 0 0 0 12.58 0h17.34a6.63 6.63 0 0 0 12.57 0h3.16a5.1 5.1 0 0 0 5.1-5.1v-6a5.09 5.09 0 0 0 -4.8-5.06zm-19.49-10.23h10.89l5.21 10.2h-16.1zm-12.29 0h9.29v10.2h-15.81zm-7.87 28a3.62 3.62 0 0 1 0-7.23 3.62 3.62 0 0 1 0 7.23zm29.95 0a3.62 3.62 0 0 1 0-7.23 3.62 3.62 0 0 1 0 7.23z"></path></g></svg>