<?xml version="1.0" encoding="UTF-8" standalone="no"?>
<!-- Uploaded to: SVG Repo, www.svgrepo.com, Generator: SVG Repo Mixer Tools -->

<svg
   width="60"
   height="60"
   viewBox="0 0 20 20"
   fill="none"
   version="1.1"
   id="svg6489"
   xmlns="http://www.w3.org/2000/svg"
   xmlns:svg="http://www.w3.org/2000/svg">
  <defs
     id="defs6493" />
  <path
     opacity="0.5"
     d="M 10,20 C 15.5228,20 20,15.5228 20,10 20,4.47715 15.5228,0 10,0 4.47715,0 0,4.47715 0,10 c 0,1.5997 0.37562,3.1116 1.04346,4.4525 0.17748,0.3563 0.23655,0.7636 0.13366,1.1481 l -0.59561,2.2261 c -0.25856,0.9663 0.6255,1.8503 1.59184,1.5918 L 4.39939,18.8229 C 4.78393,18.72 5.19121,18.7791 5.54753,18.9565 6.88837,19.6244 8.4003,20 10,20 Z"
     fill="#1c274c"
     id="path6481" />
  <path
     fill-rule="evenodd"
     clip-rule="evenodd"
     d="m 10.0004,4.77539 c -0.4556,0 -0.825,0.36937 -0.825,0.825 v 8.80001 c 0,0.4556 0.3694,0.825 0.825,0.825 0.4556,0 0.825,-0.3694 0.825,-0.825 V 5.60039 c 0,-0.45563 -0.3694,-0.825 -0.825,-0.825 z"
     fill="#1c274c"
     id="path6483" />
  <path
     fill-rule="evenodd"
     clip-rule="evenodd"
     d="m 5.60039,6.97539 c -0.45563,0 -0.825,0.36937 -0.825,0.825 v 4.40001 c 0,0.4556 0.36937,0.825 0.825,0.825 0.45564,0 0.825,-0.3694 0.825,-0.825 V 7.80039 c 0,-0.45563 -0.36936,-0.825 -0.825,-0.825 z"
     fill="#1c274c"
     id="path6485" />
  <path
     d="m 13.5754,7.80039 c 0,-0.45563 0.3694,-0.825 0.825,-0.825 0.4556,0 0.825,0.36937 0.825,0.825 v 4.40001 c 0,0.4556 -0.3694,0.825 -0.825,0.825 -0.4556,0 -0.825,-0.3694 -0.825,-0.825 z"
     fill="#1c274c"
     id="path6487" />
</svg>
